<svg id="Capa_1" enable-background="new 0 0 512 512" viewBox="0 0 512 512" xmlns="http://www.w3.org/2000/svg"><g><path d="m491.374 197.182h-5.834c-7.651 0-14.32-4.989-16.729-12.251-3.458-10.425-7.658-20.509-12.533-30.197-3.445-6.845-2.264-15.103 3.155-20.522l4.142-4.142c6.855-6.855 6.855-17.97 0-24.825l-58.356-58.356c-6.855-6.855-17.969-6.855-24.824 0l-4.142 4.142c-5.419 5.419-13.677 6.6-20.522 3.155-9.689-4.875-19.773-9.075-30.197-12.533-7.262-2.409-12.251-9.078-12.251-16.729v-5.835c0-9.695-7.859-17.554-17.554-17.554h-82.529c-9.695 0-17.554 7.859-17.554 17.554v5.835c0 7.651-4.989 14.32-12.251 16.729-10.425 3.458-20.509 7.658-30.197 12.533-6.845 3.445-15.103 2.263-20.522-3.155l-4.142-4.142c-6.855-6.855-17.97-6.855-24.825 0l-58.356 58.356c-6.855 6.855-6.855 17.97 0 24.825l4.142 4.142c5.419 5.419 6.6 13.677 3.155 20.522-4.875 9.688-9.074 19.773-12.533 30.197-2.409 7.262-9.078 12.251-16.729 12.251h-5.834c-9.695 0-17.554 7.859-17.554 17.554v82.528c0 9.695 7.859 17.554 17.554 17.554h5.834c7.651 0 14.32 4.989 16.729 12.251 3.458 10.425 7.658 20.509 12.533 30.197 3.445 6.845 2.264 15.103-3.155 20.522l-4.142 4.142c-6.855 6.855-6.855 17.97 0 24.825l58.356 58.356c6.855 6.855 17.97 6.855 24.825 0l4.142-4.142c5.419-5.419 13.677-6.6 20.522-3.155 9.688 4.875 19.773 9.074 30.197 12.532 7.262 2.409 12.251 9.078 12.251 16.729v5.835c0 9.695 7.859 17.554 17.554 17.554h82.529c9.695 0 17.554-7.859 17.554-17.554v-5.835c0-7.651 4.989-14.32 12.251-16.729 10.425-3.458 20.509-7.658 30.197-12.533 6.845-3.445 15.104-2.264 20.522 3.155l4.142 4.143c6.855 6.855 17.969 6.855 24.824 0l58.356-58.356c6.855-6.855 6.855-17.97 0-24.825l-4.142-4.143c-5.419-5.419-6.6-13.677-3.155-20.522 4.875-9.688 9.074-19.773 12.533-30.197 2.409-7.262 9.078-12.251 16.729-12.251h5.834c9.695 0 17.554-7.859 17.554-17.554v-82.528c0-9.694-7.859-17.553-17.554-17.553zm-72.198 126.97c-26.762 64.607-90.43 110.056-164.712 110.056-98.422 0-178.208-79.787-178.208-178.209s79.786-178.209 178.208-178.209c60.566 0 114.075 30.214 146.278 76.392m0 .001c20.127 28.862 31.931 63.961 31.931 101.817 0 24.139-4.799 47.157-13.496 68.152" fill="#867f8b"/><path d="m491.374 197.182h-5.835c-7.651 0-14.32-4.989-16.729-12.251-3.215-9.692-7.079-19.086-11.523-28.145h-3.906c4.193 18.461 6.795 37.642 7.833 57.319 9.216 174.68-117.417 262.258-262.258 262.258-2.373 0-4.737-.035-7.095-.098 2.383 3.01 3.785 6.769 3.785 10.81v5.835c0 9.695 7.859 17.554 17.554 17.554h82.529c9.695 0 17.554-7.859 17.554-17.554v-5.835c0-7.651 4.989-14.32 12.251-16.729 10.424-3.458 20.509-7.658 30.197-12.533 6.845-3.444 15.104-2.263 20.522 3.155l4.143 4.142c6.855 6.855 17.969 6.855 24.825 0l58.356-58.356c6.855-6.855 6.855-17.97 0-24.825l-4.143-4.143c-5.418-5.419-6.599-13.677-3.155-20.522 4.875-9.688 9.075-19.773 12.533-30.197 2.409-7.262 9.078-12.251 16.729-12.251h5.835c9.695 0 17.554-7.859 17.554-17.554v-82.528c-.002-9.693-7.861-17.552-17.556-17.552z" fill="#786d75"/><g><g><path d="m490.425 169.416-124.14 69.041-139.811-77.757c-3.617 3.156-5.903 7.801-5.903 12.978v116.053l269.854 8.458z" fill="#f8cb3c"/><path d="m481.28 166.461v118.224c0 2.787-2.26 5.047-5.047 5.047h-255.662v13.504c0 4.755 1.955 9.842 5.914 12.966l151.624-11.109 127.978 11.109c3.617-3.156 5.913-7.788 5.913-12.966v-129.558c0-5.178-2.296-9.81-5.913-12.966z" fill="#f5bb2a"/></g><g><path d="m475.522 289.731-81.504-70.585c-15.918-13.786-39.545-13.786-55.463 0l-81.505 70.585 101.855 5.88z" fill="#f9d75a"/><path d="m475.522 289.731h-218.473l-30.565 26.47c3.026 2.641 6.973 4.252 11.305 4.252h256.992c4.332 0 8.279-1.612 11.305-4.252z" fill="#f8cb3c"/></g><path d="m338.554 257.767c15.918 13.786 39.545 13.786 55.463 0l112.069-97.055c-3.026-2.641-6.973-4.252-11.305-4.252h-256.992c-4.332 0-8.279 1.611-11.305 4.252z" fill="#fbe67a"/></g><g fill="#c2deff"><path d="m187.253 216.487h-21.567c-4.242 0-7.68-3.438-7.68-7.68s3.438-7.68 7.68-7.68h21.567c4.242 0 7.68 3.438 7.68 7.68s-3.438 7.68-7.68 7.68z"/><path d="m187.253 259.62h-43.133c-4.242 0-7.68-3.439-7.68-7.68 0-4.242 3.438-7.68 7.68-7.68h43.133c4.242 0 7.68 3.439 7.68 7.68 0 4.242-3.438 7.68-7.68 7.68z"/><path d="m187.253 302.753h-66.663c-4.242 0-7.68-3.439-7.68-7.68s3.438-7.68 7.68-7.68h66.663c4.242 0 7.68 3.439 7.68 7.68 0 4.242-3.438 7.68-7.68 7.68z"/></g></g><g/><g/><g/><g/><g/><g/><g/><g/><g/><g/><g/><g/><g/><g/><g/></svg>